<svg class="PostFooter__comments-icon-new" viewBox="0 0 16 16" xmlns="http://www.w3.org/2000/svg">
    <path clip-rule="evenodd" d="M4.00001 0C2.99219 0 2.02564 0.400356 1.31301 1.11299C0.600368 1.82563 0.200012 2.79218 0.200012 3.8V8.6C0.200012 9.60782 0.600368 10.5744 1.31301 11.287C2.02564 11.9996 2.99219 12.4 4.00001 12.4H5.35149L7.5753 14.6238C7.57545 14.624 7.5756 14.6241 7.57575 14.6243C7.81006 14.8586 8.18996 14.8586 8.42428 14.6243L10.6485 12.4H12C13.0078 12.4 13.9744 11.9996 14.687 11.287C15.3997 10.5744 15.8 9.60782 15.8 8.6V3.8C15.8 2.79218 15.3997 1.82563 14.687 1.11299C13.9744 0.400356 13.0078 0 12 0H4.00001ZM8.00001 13.3515L9.97575 11.3757C10.0883 11.2632 10.2409 11.2 10.4 11.2H12C12.6896 11.2 13.3509 10.9261 13.8385 10.4385C14.3261 9.95088 14.6 9.28956 14.6 8.6V3.8C14.6 3.11044 14.3261 2.44912 13.8385 1.96152C13.3509 1.47393 12.6896 1.2 12 1.2H4.00001C3.31045 1.2 2.64913 1.47393 2.16153 1.96152C1.67394 2.44912 1.40001 3.11044 1.40001 3.8V8.6C1.40001 9.28956 1.67394 9.95088 2.16153 10.4385C2.64913 10.9261 3.31045 11.2 4.00001 11.2H5.60001C5.7657 11.2 5.91569 11.2672 6.02427 11.3757C6.02435 11.3758 6.02443 11.3759 6.02452 11.376L8.00001 13.3515Z" fill="inherit" fill-rule="evenodd"></path>
</svg>
