<svg xmlns="http://www.w3.org/2000/svg" viewBox="0 0 20 20">
    <path d="M10 .875A9.125 9.125 0 1019.125 10 9.135 9.135 0 0010 .875zm0 17A7.875 7.875 0 1117.875 10 7.884 7.884 0 0110 17.875z"></path>
    <path d="M10.479 13.635a1.085 1.085 0 00-.547-.141 1.035 1.035 0 00-.537.145 1.009 1.009 0 00-.379.388 1.1 1.1 0 00-.137.547 1.018 1.018 0 00.143.533 1.045 1.045 0 00.387.38 1.056 1.056 0 00.536.14 1.076 1.076 0 00.54-.14 1.008 1.008 0 00.387-.385 1.08 1.08 0 00.14-.541 1.05 1.05 0 00-.533-.926zM11.507 5.641a3.213 3.213 0 00-1.425-.309 3.15 3.15 0 00-1.535.368 2.646 2.646 0 00-1.028.974 2.52 2.52 0 00-.363 1.312h1.463a1.172 1.172 0 01.181-.661 1.327 1.327 0 01.516-.468 1.623 1.623 0 011.415-.017 1.212 1.212 0 01.5.431 1.1 1.1 0 01.181.618 1.063 1.063 0 01-.119.5 1.56 1.56 0 01-.3.4 9.531 9.531 0 01-.492.43 6.846 6.846 0 00-.656.585 2.292 2.292 0 00-.431.656 2.206 2.206 0 00-.178.919v.766h1.429v-.793a1.281 1.281 0 01.13-.58 1.824 1.824 0 01.321-.459c.128-.132.3-.3.533-.493a7.691 7.691 0 00.633-.584 2.279 2.279 0 00.41-.622 2.015 2.015 0 00.167-.85A2.262 2.262 0 0012.5 6.5a2.41 2.41 0 00-.993-.859z"></path>
</svg>
